<svg width="38" height="38" viewBox="0 0 38 38" fill="none" xmlns="http://www.w3.org/2000/svg">
<path d="M19.9429 12.8334C17.828 12.2857 15.6697 13.5561 15.122 15.671C15.0127 16.0945 15.2675 16.5265 15.691 16.6358C16.1146 16.7451 16.5466 16.4904 16.6559 16.0668C16.8565 15.2859 17.4398 14.6601 18.2047 14.4051C19.4488 13.9903 20.7936 14.6627 21.2083 15.9068C21.623 17.1509 20.9507 18.4956 19.7066 18.9103C18.7508 19.2655 18.1264 20.1887 18.1526 21.208V22.2031C18.1528 22.6401 18.5073 22.9942 18.9443 22.9939H18.9452C19.3822 22.9936 19.7363 22.6392 19.736 22.2022V21.208C19.7145 20.8678 19.906 20.55 20.2168 20.4101C21.4817 19.983 22.4458 18.9466 22.7805 17.6541C23.3281 15.5393 22.0576 13.381 19.9429 12.8334ZM18.944 24.3792C18.3974 24.3792 17.9544 24.8223 17.9544 25.3688C17.9544 25.9153 18.3974 26.3584 18.944 26.3584C19.4905 26.3584 19.9336 25.9153 19.9336 25.3688C19.9336 24.8223 19.4905 24.3792 18.944 24.3792ZM19 3.16666C10.2555 3.16666 3.16663 10.2555 3.16663 19C3.16663 27.7445 10.2555 34.8333 19 34.8333C27.7402 34.8231 34.8231 27.7402 34.8333 19C34.8333 10.2555 27.7444 3.16666 19 3.16666ZM19 33.25C11.1299 33.25 4.74996 26.8701 4.74996 19C4.74996 11.1299 11.1299 4.74999 19 4.74999C26.8665 4.75859 33.2414 11.1335 33.25 19C33.25 26.8701 26.87 33.25 19 33.25Z" fill="#343434"/>
</svg>
