<svg width="38" height="38" viewBox="0 0 38 38" fill="none" xmlns="http://www.w3.org/2000/svg">
<g clip-path="url(#clip0_47_8)">
<path d="M34.466 9.69001L26.866 6.87801C27.018 6.95401 26.638 6.72601 26.334 6.87801L19 9.57601L11.704 6.87801C11.856 6.95401 11.476 6.72601 11.172 6.87801L3.572 9.69001C3.268 9.80401 3.078 10.07 3.078 10.412V30.4C3.078 31.73 4.75 30.856 4.104 31.122L11.4 28.424L18.696 31.122C19.038 31.236 19.418 31.046 19.266 31.122L26.6 28.424L33.934 31.122C34.428 31.312 34.96 30.97 34.96 30.4V10.412C34.96 10.108 34.77 9.80401 34.466 9.69001ZM10.64 27.094L4.56 29.26V10.906L10.64 8.70201V27.094ZM18.24 29.26L12.16 27.056V8.70201L18.24 10.906V29.26ZM25.84 27.094L19.76 29.26V10.906L25.84 8.70201V27.094ZM33.44 29.26L27.36 27.056V8.70201L33.44 10.906V29.26Z" fill="#343434"/>
<path d="M518.32 -140.6V499.32H-159.6V-140.6H518.32ZM521.36 -143.64H-162.64V502.36H521.36V-143.64Z" fill="#0000FF"/>
</g>
<defs>
<clipPath id="clip0_47_8">
<rect width="38" height="38" fill="white"/>
</clipPath>
</defs>
</svg>
