<svg width="60" height="60" viewBox="0 0 60 60" fill="none" xmlns="http://www.w3.org/2000/svg">
<path d="M30 5C25.0555 5 20.222 6.46622 16.1108 9.21326C11.9995 11.9603 8.79521 15.8648 6.90302 20.4329C5.01083 25.0011 4.51575 30.0277 5.48038 34.8773C6.44501 39.7268 8.82603 44.1814 12.3223 47.6777C15.8187 51.174 20.2732 53.555 25.1228 54.5196C29.9723 55.4843 34.9989 54.9892 39.5671 53.097C44.1353 51.2048 48.0397 48.0005 50.7867 43.8893C53.5338 39.778 55 34.9445 55 30C55 26.717 54.3534 23.4661 53.097 20.4329C51.8406 17.3998 49.9991 14.6438 47.6777 12.3223C45.3562 10.0009 42.6002 8.15938 39.5671 6.90301C36.534 5.64664 33.2831 5 30 5V5ZM40.75 24.025L29.325 39.025C29.0921 39.3275 28.793 39.5727 28.4507 39.7417C28.1083 39.9107 27.7318 39.9991 27.35 40C26.9703 40.002 26.5951 39.9176 26.2529 39.753C25.9107 39.5883 25.6104 39.3479 25.375 39.05L19.275 31.275C19.0731 31.0156 18.9243 30.719 18.837 30.4022C18.7497 30.0853 18.7257 29.7543 18.7663 29.4281C18.8069 29.102 18.9114 28.787 19.0737 28.5012C19.2361 28.2154 19.4532 27.9644 19.7125 27.7625C20.2363 27.3547 20.9006 27.1717 21.5594 27.2538C21.8855 27.2944 22.2005 27.3989 22.4863 27.5612C22.7721 27.7236 23.0231 27.9406 23.225 28.2L27.3 33.4L36.75 20.9C36.9503 20.6374 37.2003 20.4167 37.4858 20.2507C37.7714 20.0847 38.0868 19.9766 38.4141 19.9324C38.7415 19.8883 39.0743 19.9091 39.3936 19.9936C39.7129 20.0782 40.0124 20.2247 40.275 20.425C40.5377 20.6253 40.7583 20.8753 40.9243 21.1608C41.0903 21.4464 41.1985 21.7618 41.2426 22.0891C41.2867 22.4165 41.2659 22.7493 41.1814 23.0685C41.0968 23.3878 40.9503 23.6874 40.75 23.95V24.025Z" fill="#752AD4"/>
</svg>
