<svg width="64" height="64" viewBox="0 0 64 64" fill="none" xmlns="http://www.w3.org/2000/svg">
<path d="M32 5.9912C25.6679 5.99146 19.5426 8.24483 14.7199 12.3481C9.89724 16.4514 6.69199 22.1369 5.67768 28.3872C4.66337 34.6374 5.90617 41.0447 9.18372 46.4625C12.4613 51.8804 17.5597 55.9552 23.5667 57.9578C24.9 58.1912 25.4 57.3913 25.4 56.6912C25.4 56.0579 25.3667 53.9578 25.3667 51.7245C18.6667 52.9578 16.9333 50.0913 16.4 48.5913C15.8082 47.1324 14.8701 45.8396 13.6667 44.8245C12.7333 44.3245 11.4 43.0912 13.6333 43.0579C14.4861 43.1505 15.304 43.4472 16.0177 43.923C16.7314 44.3988 17.3199 45.0396 17.7333 45.7912C18.098 46.4464 18.5885 47.0232 19.1765 47.4885C19.7645 47.9538 20.4386 48.2986 21.1601 48.5029C21.8816 48.7073 22.6363 48.7673 23.381 48.6795C24.1257 48.5917 24.8458 48.3578 25.4999 47.9912C25.6154 46.6355 26.2196 45.368 27.2 44.4246C21.2667 43.7579 15.0667 41.4578 15.0667 31.2579C15.0292 28.6077 16.0072 26.0435 17.8 24.0913C16.9847 21.7879 17.0801 19.26 18.0667 17.0246C18.0667 17.0246 20.2999 16.3246 25.4 19.7579C29.7634 18.5579 34.3699 18.5579 38.7333 19.7579C43.8333 16.2913 46.0667 17.0246 46.0667 17.0246C47.0533 19.26 47.1487 21.7879 46.3333 24.0913C48.1316 26.0401 49.1104 28.6066 49.0667 31.2579C49.0667 41.4912 42.8333 43.7579 36.9 44.4246C37.5364 45.0696 38.0265 45.8441 38.3371 46.6953C38.6477 47.5465 38.7715 48.4546 38.7 49.3579C38.7 52.9247 38.6666 55.7912 38.6666 56.6913C38.6666 57.3913 39.1666 58.2246 40.5 57.9579C46.4964 55.9389 51.5802 51.8546 54.8438 46.434C58.1073 41.0134 59.3383 34.6094 58.317 28.3652C57.2957 22.1209 54.0885 16.4429 49.2679 12.3446C44.4473 8.24626 38.3272 5.99449 32 5.9912V5.9912Z" fill="white"/>
</svg>
