<svg width="60" height="60" viewBox="0 0 60 60" fill="none" xmlns="http://www.w3.org/2000/svg">
<path d="M52.5 10H7.5C6.83696 10 6.20107 10.2634 5.73223 10.7322C5.26339 11.2011 5 11.837 5 12.5V47.5C5 48.163 5.26339 48.7989 5.73223 49.2678C6.20107 49.7366 6.83696 50 7.5 50H52.5C53.163 50 53.7989 49.7366 54.2678 49.2678C54.7366 48.7989 55 48.163 55 47.5V12.5C55 11.837 54.7366 11.2011 54.2678 10.7322C53.7989 10.2634 53.163 10 52.5 10V10ZM50 37.5C48.0109 37.5 46.1032 38.2902 44.6967 39.6967C43.2902 41.1032 42.5 43.0109 42.5 45H17.5C17.5 43.0109 16.7098 41.1032 15.3033 39.6967C13.8968 38.2902 11.9891 37.5 10 37.5V22.5C11.9891 22.5 13.8968 21.7098 15.3033 20.3033C16.7098 18.8968 17.5 16.9891 17.5 15H42.5C42.5 16.9891 43.2902 18.8968 44.6967 20.3033C46.1032 21.7098 48.0109 22.5 50 22.5V37.5Z" fill="#23A04E"/>
<path d="M30 20C24.485 20 20 24.485 20 30C20 35.515 24.485 40 30 40C35.515 40 40 35.515 40 30C40 24.485 35.515 20 30 20ZM30 35C27.2425 35 25 32.7575 25 30C25 27.2425 27.2425 25 30 25C32.7575 25 35 27.2425 35 30C35 32.7575 32.7575 35 30 35Z" fill="#23A04E"/>
</svg>
