<svg width="60" height="60" viewBox="0 0 60 60" fill="none" xmlns="http://www.w3.org/2000/svg">
<path d="M30 5C13.7625 5 5 16.5925 5 27.5C5 32.8225 7.5225 37.4475 12.5 41.27V52.5H20V45H25V52.5H35V45H40V52.5H47.5V41.2675C52.4775 37.4475 55 32.82 55 27.5C55 16.5925 46.2375 5 30 5V5ZM20 32.5C17.1975 32.5 15 29.755 15 26.25C15 22.745 17.1975 20 20 20C22.8025 20 25 22.745 25 26.25C25 29.755 22.8025 32.5 20 32.5ZM40 32.5C37.1975 32.5 35 29.755 35 26.25C35 22.745 37.1975 20 40 20C42.8025 20 45 22.745 45 26.25C45 29.755 42.8025 32.5 40 32.5Z" fill="#E45959"/>
</svg>
