<svg width="60" height="60" viewBox="0 0 60 60" fill="none" xmlns="http://www.w3.org/2000/svg">
<path d="M53.8791 47.9214C53.2339 47.218 52.372 46.7901 51.4541 46.7176L44.6011 38.877L48.6053 34.5453C48.7415 34.3986 48.8179 34.2 48.8179 33.9931C48.8179 33.7861 48.7415 33.5876 48.6053 33.4409L46.82 31.5085C46.7072 31.3864 46.5601 31.3074 46.4013 31.2836C46.2425 31.2598 46.0808 31.2924 45.941 31.3766L41.1966 34.227L36.0751 28.2183L50.6269 13.7043C50.7664 13.5656 50.8498 13.3741 50.8594 13.1704L51.2168 5.82915C51.2222 5.71922 51.2059 5.60932 51.169 5.50657C51.1322 5.40382 51.0756 5.31053 51.0029 5.23274C50.9303 5.15496 50.8432 5.09442 50.7473 5.05505C50.6514 5.01569 50.5488 4.99839 50.4462 5.00426L43.6577 5.38739C43.4657 5.39817 43.2853 5.48955 43.1557 5.64177L29.9995 21.0843L16.8433 5.64177C16.7136 5.48955 16.5333 5.39817 16.3413 5.38739L9.55663 5.00112C9.45408 4.99525 9.35153 5.01255 9.25562 5.05191C9.15972 5.09128 9.0726 5.15182 8.99994 5.2296C8.92728 5.30739 8.87069 5.40068 8.83384 5.50343C8.797 5.60618 8.78072 5.71608 8.78607 5.82601L9.14352 13.1673C9.1531 13.3709 9.2365 13.5625 9.37596 13.7012L23.9239 28.2183L18.8024 34.227L14.0599 31.3766C13.9201 31.2924 13.7584 31.2598 13.5996 31.2836C13.4409 31.3074 13.2938 31.3864 13.1809 31.5085L11.3956 33.4409C11.2595 33.5876 11.183 33.7861 11.183 33.9931C11.183 34.2 11.2595 34.3986 11.3956 34.5453L15.3998 38.877L8.5468 46.7176C7.62894 46.7901 6.76703 47.218 6.12182 47.9214C5.40301 48.7024 5 49.7554 5 50.8525C5 51.9496 5.40301 53.0026 6.12182 53.7836C6.47699 54.1689 6.9 54.4749 7.3663 54.6837C7.83261 54.8925 8.33295 55 8.83832 55C9.34369 55 9.84403 54.8925 10.3103 54.6837C10.7766 54.4749 11.1996 54.1689 11.5548 53.7836C12.2031 53.0805 12.5958 52.1525 12.6623 51.1665L19.9021 43.7551L23.8955 48.0764C23.9637 48.15 24.0448 48.2084 24.1342 48.2483C24.2235 48.2882 24.3193 48.3087 24.4161 48.3087C24.5129 48.3087 24.6087 48.2882 24.698 48.2483C24.7874 48.2084 24.8685 48.15 24.9366 48.0764L26.7219 46.1439C26.833 46.0236 26.9049 45.8679 26.9267 45.7002C26.9485 45.5325 26.9192 45.3617 26.843 45.2133L24.2061 40.0766L29.9995 34.2762L35.7987 40.062L33.1618 45.2071C33.0857 45.3554 33.0563 45.5262 33.0782 45.6939C33.1 45.8616 33.1718 46.0173 33.2829 46.1377L35.0682 48.0701C35.1364 48.1437 35.2175 48.2021 35.3068 48.242C35.3962 48.2819 35.492 48.3024 35.5888 48.3024C35.6855 48.3024 35.7813 48.2819 35.8707 48.242C35.96 48.2021 36.0411 48.1437 36.1093 48.0701L40.1027 43.7488L47.3425 51.1603C47.409 52.1462 47.8018 53.0742 48.45 53.7773C48.8052 54.1626 49.2282 54.4686 49.6945 54.6774C50.1608 54.8862 50.6612 54.9937 51.1665 54.9937C51.6719 54.9937 52.1722 54.8862 52.6385 54.6774C53.1048 54.4686 53.5278 54.1626 53.883 53.7773C54.5995 52.996 55.0007 51.9441 55 50.8485C54.9993 49.7529 54.5967 48.7016 53.8791 47.9214ZM44.0347 6.93772L49.7069 6.6153L49.4081 12.7685L35.0868 27.0553L33.5369 25.236L45.3639 12.4377C45.4967 12.2889 45.5698 12.0901 45.5672 11.8841C45.5646 11.6782 45.4866 11.4816 45.35 11.3367C45.2134 11.1918 45.0292 11.1103 44.837 11.1096C44.6449 11.109 44.4602 11.1893 44.3228 11.3333L32.5475 24.0751L30.9917 22.2515L44.0347 6.93772ZM24.9962 29.2851L26.4201 30.7056L21.6073 35.9135L20.114 35.0163L24.9962 29.2851ZM10.5118 52.674C10.2928 52.912 10.0319 53.101 9.74419 53.23C9.45649 53.359 9.14774 53.4254 8.83588 53.4254C8.52402 53.4254 8.21527 53.359 7.92757 53.23C7.63987 53.101 7.37895 52.912 7.15998 52.674C6.7136 52.1876 6.46343 51.5327 6.46343 50.8504C6.46343 50.1682 6.7136 49.5132 7.15998 49.0269C7.37875 48.7885 7.6396 48.5991 7.92733 48.4699C8.21506 48.3407 8.52391 48.2741 8.83588 48.2741C9.14785 48.2741 9.4567 48.3407 9.74443 48.4699C10.0322 48.5991 10.293 48.7885 10.5118 49.0269C10.9582 49.5132 11.2083 50.1682 11.2083 50.8504C11.2083 51.5327 10.9582 52.1876 10.5118 52.674ZM12.384 49.2718C12.1921 48.766 11.9086 48.3059 11.5499 47.9182C11.1911 47.5304 10.7643 47.2227 10.294 47.0128L16.4302 39.9929L18.8717 42.6329L12.384 49.2718ZM25.2941 45.4499L24.4151 46.4015L12.9465 33.9926L13.8255 33.0379L21.1912 37.4659L25.2941 45.4499ZM23.4756 38.6509L22.6415 37.0262L27.4935 31.7775L28.9252 33.2043L23.4756 38.6509ZM25.4484 27.5903L10.5909 12.7685L10.292 6.6153L15.9643 6.93772L39.885 35.0163L38.3917 35.9135L15.6762 11.3333C15.5388 11.1893 15.3541 11.109 15.1619 11.1096C14.9698 11.1103 14.7855 11.1918 14.649 11.3367C14.5124 11.4816 14.4344 11.6782 14.4318 11.8841C14.4292 12.0901 14.5022 12.2889 14.6351 12.4377L37.3574 37.0262L36.5273 38.6435L25.4484 27.5903ZM35.5848 46.4015L34.7059 45.4499L38.8077 37.4659L46.1696 33.0337L47.0486 33.9884L35.5848 46.4015ZM47.615 49.2718L41.1331 42.6329L43.5747 39.9929L49.7108 47.0128C49.2405 47.2227 48.8137 47.5304 48.455 47.9182C48.0963 48.3059 47.8128 48.766 47.6209 49.2718H47.615ZM52.839 52.674C52.62 52.912 52.3591 53.101 52.0714 53.23C51.7837 53.359 51.475 53.4254 51.1631 53.4254C50.8512 53.4254 50.5425 53.359 50.2548 53.23C49.9671 53.101 49.7062 52.912 49.4872 52.674C49.0408 52.1876 48.7907 51.5327 48.7907 50.8504C48.7907 50.1682 49.0408 49.5132 49.4872 49.0269C49.706 48.7885 49.9668 48.5991 50.2545 48.4699C50.5423 48.3407 50.8511 48.2741 51.1631 48.2741C51.4751 48.2741 51.7839 48.3407 52.0716 48.4699C52.3594 48.5991 52.6202 48.7885 52.839 49.0269C53.2854 49.5132 53.5355 50.1682 53.5355 50.8504C53.5355 51.5327 53.2854 52.1876 52.839 52.674Z" fill="#D69E0F"/>
</svg>
